<svg width="100" height="200" viewBox="0 0 864 864" fill="none" xmlns="http://www.w3.org/2000/svg">
<path fill-rule="evenodd" clip-rule="evenodd" d="M562.567 361.335C562.908 368.636 563.044 375.954 563.628 383.236C565.457 406.063 556.236 423.731 538.599 437.522C533.828 441.252 528.872 444.746 524.087 448.459C511.422 458.283 503.906 470.102 510.657 488.73C496.287 485.926 483.285 483.508 470.34 480.824C460.793 478.845 451.402 475.964 441.786 474.512C433.665 473.284 425.322 473.533 415.823 473.067C411.591 456.78 397.384 447.866 383.704 437.88C361.22 421.467 353.49 398.425 357.306 371.201C357.725 368.205 358.272 365.224 358.575 362.218C358.705 360.928 358.362 359.593 356.368 357.324C354.324 361.091 351.709 364.66 350.328 368.657C340.528 397.005 355.38 430.518 384.793 448.527C391.213 452.458 397.558 457.613 401.862 463.677C412.624 478.838 405.089 495.021 386.563 497.962C372.558 500.185 360 496.223 348.315 488.518C279.439 443.104 268.495 362.152 323.256 299.811C333.88 287.717 345.114 275.742 357.87 266.095C365.576 260.267 376.768 256.164 386.37 256.212C436.515 256.461 486.667 257.893 536.774 259.96C544.861 260.293 554.089 264.209 560.461 269.354C586.776 290.597 607.253 316.597 619.536 348.524C639.009 399.141 616.715 460.777 565.819 489.996C557.874 494.557 547.179 496.098 537.788 496C518.2 495.799 509.505 477.637 521.423 461.892C526.724 454.888 534.691 449.65 542.084 444.527C565.214 428.497 578.203 396.984 570.719 373.274C569.351 368.937 567.098 364.879 565.252 360.691C564.356 360.904 563.462 361.12 562.567 361.335Z" fill="#9AD06F"/>
<path fill-rule="evenodd" clip-rule="evenodd" d="M356.595 544.808C375.47 549.185 392.372 553.363 409.392 556.987C430.039 561.383 447.959 556.85 462.235 540.262C464.259 537.909 468.631 536.302 471.8 536.477C478.454 536.843 485.055 538.502 491.632 539.845C519.531 545.538 534.726 531.713 531.052 503.889C541.222 502.942 551.4 501.993 562.806 500.93C562.949 503.575 563.261 506.754 563.275 509.934C563.658 598.154 564.127 686.374 564.207 774.594C564.217 784.582 562.953 794.814 560.473 804.467C559.102 809.793 555.005 816.229 550.338 818.56C536.004 825.715 520.278 827.269 505.732 819.565C491.868 812.222 485.745 799.292 485.758 783.53C485.818 718.542 485.828 653.554 485.856 588.567C485.858 584.942 485.856 581.319 485.856 577.237C469.761 577.237 454.746 577.237 438.724 577.237C438.385 583.149 437.781 588.756 437.784 594.363C437.816 655.645 438.044 716.927 437.932 778.211C437.915 787.228 437.128 796.38 435.416 805.223C433.122 817.065 424.999 824.214 413.147 825.379C403.256 826.353 392.867 827.085 383.267 825.13C366.023 821.62 356.834 808.494 356.813 790.753C356.721 713.98 356.664 637.207 356.596 560.434C356.592 555.778 356.595 551.125 356.595 544.808Z" fill="#9AD06F"/>
<path fill-rule="evenodd" clip-rule="evenodd" d="M516.176 233.172C504.135 236.46 492.274 241.414 480.021 242.735C437.591 247.312 401.23 234.825 375.618 199.291C340.485 150.544 360.519 87.758 417.215 66.514C466.472 48.058 521.678 66.201 549.729 110.791C563.944 133.385 566.288 158.093 558.138 183.411C556.782 187.625 552.516 192.699 548.537 193.916C539.071 196.809 529.014 197.985 519.113 199.136C514.175 199.71 509.055 198.442 504.019 198.467C492.226 198.525 485.58 203.83 485.09 213.583C484.504 225.288 493.864 225.469 501.56 227.117C506.045 228.078 510.713 228.184 515.299 228.674C515.591 230.174 515.883 231.673 516.176 233.172Z" fill="#9AD06F"/>
<path fill-rule="evenodd" clip-rule="evenodd" d="M451.885 27.878C514.967 32.055 563.84 57.462 591.256 116.866C592.551 119.672 594.981 122.753 597.668 123.965C605.512 127.504 608.707 133.788 608.994 141.588C609.416 153.014 610.207 164.627 608.601 175.839C607.845 181.112 602.504 186.351 598.08 190.307C593.505 194.401 587.03 196.32 582.24 200.234C559.343 218.951 532.697 223.316 504.374 220.896C499.407 220.471 492.158 218.675 494.342 211.482C495.143 208.84 502.438 206.41 506.486 206.805C527.997 208.901 548.064 205.731 566.231 193.447C572.086 189.488 574.737 185.638 573.293 177.021C570.554 160.671 568.724 143.775 576.091 127.437C577.589 124.115 575.489 118.332 573.545 114.433C559.926 87.118 538.496 67.584 510.708 55.7C467.498 37.221 425.009 38.396 384.155 63.241C366.069 74.24 352.791 89.526 343.992 108.684C342.996 110.851 342.243 114.263 343.248 116.041C352.594 132.584 347.601 150.315 347.544 167.503C347.517 175.572 338.561 181.48 329.345 181.766C319.153 182.083 309.319 175.861 308.584 166.388C307.471 152.033 307.634 137.5 308.532 123.122C308.766 119.39 313.043 114.259 316.694 112.746C323.682 109.852 326.526 104.613 329.74 98.595C349.811 61.005 382.045 39.928 423.052 31.444C432.545 29.479 442.35 29.016 451.885 27.878Z" fill="#9AD06F"/>
<path fill-rule="evenodd" clip-rule="evenodd" d="M356.753 503.36C370.838 503.36 383.079 503.174 395.306 503.518C397.751 503.586 401.098 505.021 402.4 506.934C412.685 522.048 427.377 528.55 444.974 530.431C448.531 530.811 451.832 533.564 455.251 535.224C453.093 538.694 451.741 543.398 448.64 545.422C434.383 554.728 418.455 553.539 402.853 550.231C389.426 547.384 376.236 543.319 363.109 539.254C360.592 538.475 357.189 535.302 357.039 533.044C356.377 523.062 356.753 513.008 356.753 503.36Z" fill="#9AD06F"/>
<path fill-rule="evenodd" clip-rule="evenodd" d="M431.613 516.789C420.708 516.748 412.45 509.21 412.287 499.149C412.119 488.779 421.047 480.283 431.921 480.463C442.33 480.637 451.193 488.812 451.423 498.45C451.667 508.669 442.849 516.832 431.613 516.789Z" fill="#9AD06F"/>
<path d="M518 510.333L507.534 508.148L509.369 499.358L498.068 497L496.234 505.79L485.77 503.605L482.61 518.742L493.074 520.927L491.239 529.718L502.539 532.077L504.375 523.285L514.84 525.47L518 510.333Z" fill="#9AD06F"/>
</svg>
