<svg width="259" height="257" viewBox="0 0 259 257" fill="none" xmlns="http://www.w3.org/2000/svg">
<path d="M98.7723 114.105C102.1 114.933 107.819 115.051 116.279 111.01C120.183 113.316 124.72 114.662 129.583 114.662C134.431 114.662 138.957 113.323 142.854 111.03C151.293 115.052 156.999 114.931 160.322 114.105C162.211 113.635 163.149 111.491 162.25 109.764C157.551 100.736 157.664 88.0186 157.664 88.0186C157.664 72.4899 145.076 59.9014 129.547 59.9014C114.018 59.9014 101.43 72.4899 101.43 88.0186C101.43 88.0186 101.543 100.736 96.8441 109.764C95.9454 111.491 96.8832 113.635 98.7723 114.105ZM107.337 95.4192C125.65 95.0763 134.053 86.6368 137.898 79.0186L151.51 89.0885L152.841 90.0248L152.609 91.94C150.906 103.133 141.244 111.747 129.583 111.747C119.159 111.747 110.315 104.872 107.337 95.4192Z" fill="#5BB543"/>
<path d="M90.6309 103.333C91.3604 103.796 92.1753 104.028 92.9944 104.028C93.7317 104.028 94.4733 103.84 95.1593 103.463C96.6133 102.662 97.5171 101.136 97.5171 99.4819V86.9691V84.9394C97.5171 67.5745 111.645 53.4463 129.01 53.4463H130.155C147.52 53.4463 161.648 67.5745 161.648 84.9394V99.4819C161.648 101.136 162.552 102.662 164.006 103.463C164.692 103.84 165.433 104.028 166.171 104.028C166.99 104.028 167.805 103.796 168.534 103.333C171.69 101.336 175.45 97.3241 175.45 89.5497C175.45 81.7739 171.69 77.7615 168.534 75.7645C167.149 74.8863 165.456 74.8379 164.006 75.635C163.787 75.7557 163.585 75.8976 163.392 76.0491C159.462 61.3722 146.053 50.5312 130.155 50.5312H129.01C113.112 50.5312 99.7025 61.3722 95.7729 76.0491C95.5801 75.8976 95.3784 75.7557 95.1593 75.635C93.7125 74.8407 92.0187 74.8863 90.6309 75.7645C87.4753 77.7615 83.7148 81.7739 83.7148 89.5497C83.7148 97.3241 87.4753 101.336 90.6309 103.333ZM164.563 79.6161C164.563 79.0154 164.88 78.4817 165.412 78.1899C165.553 78.1116 165.832 77.9878 166.177 77.9878C166.419 77.9878 166.693 78.049 166.975 78.2269C170.665 80.5626 172.535 84.3715 172.535 89.5497C172.535 94.7264 170.665 98.5353 166.975 100.871C166.292 101.304 165.653 101.042 165.412 100.908C164.88 100.616 164.563 100.083 164.563 99.4819V84.9394V79.6161ZM92.1895 78.2269C92.472 78.049 92.746 77.9878 92.988 77.9878C93.3325 77.9878 93.6114 78.1116 93.7531 78.1899C94.2847 78.4817 94.6021 79.0154 94.6021 79.6161V84.9394V86.9691V99.4819C94.6021 100.083 94.2847 100.616 93.7531 100.908C93.5125 101.04 92.8741 101.302 92.1895 100.871C88.5002 98.5353 86.6299 94.7264 86.6299 89.5497C86.6299 84.3715 88.5002 80.5626 92.1895 78.2269Z" fill="#5BB543"/>
<path d="M185.248 150.922C183.39 142.326 178.734 135.192 173.903 129.776C167.06 122.103 157.193 117.824 146.912 117.824C143.885 117.824 140.905 118.564 138.23 119.981C132.799 122.857 126.296 122.857 120.865 119.981H120.865C118.19 118.564 115.21 117.824 112.183 117.824C101.902 117.824 92.0352 122.103 85.1917 129.776C78.9501 136.774 73.001 146.638 73.001 158.82C73.001 158.82 73.5114 178.852 90.1437 178.852H93.4397L94.1186 181.784C95.6869 188.559 95.7318 195.961 94.2497 202.755C93.8334 204.663 95.2869 206.468 97.2402 206.468H161.855C163.808 206.468 165.262 204.663 164.845 202.755C163.363 195.961 163.408 188.559 164.977 181.784L165.655 178.852H168.951C178.456 178.852 182.695 172.311 184.584 166.704C186.294 161.628 186.379 156.157 185.248 150.922ZM139.786 126.322C141.396 126.322 142.701 127.627 142.701 129.237C142.701 130.847 141.396 132.152 139.786 132.152C138.176 132.152 136.871 130.847 136.871 129.237C136.871 127.627 138.176 126.322 139.786 126.322ZM129.583 127.78C129.583 126.974 130.236 126.322 131.041 126.322C131.846 126.322 132.498 126.974 132.498 127.78V137.983C132.498 138.788 131.846 139.44 131.041 139.44C130.236 139.44 129.583 138.788 129.583 137.983V127.78ZM164.3 161.958V177.155C163.395 178.449 161.915 179.22 160.335 179.22H159.599L159.614 179.336C159.998 182.342 158.472 185.269 155.788 186.676L155.743 186.7C154.678 187.258 153.524 187.529 152.38 187.529C150.411 187.529 148.471 186.727 147.063 185.21L140.62 178.268C140.068 177.673 139.294 177.335 138.483 177.335H120.612C119.801 177.335 119.027 177.673 118.475 178.268L112.032 185.21C110.624 186.727 108.685 187.529 106.716 187.529C105.572 187.529 104.417 187.258 103.352 186.7L103.307 186.676C100.623 185.269 99.0974 182.342 99.4815 179.336L99.4964 179.22H96.8677C95.9479 179.22 95.0607 178.88 94.3771 178.264C93.593 177.558 93.1453 176.553 93.1453 175.498V161.359L93.1512 161.352C90.8144 160.295 88.7016 158.216 88.7016 154.448C88.7016 153.642 89.3542 152.99 90.1591 152.99C90.964 152.99 91.6166 153.642 91.6166 154.448C91.6166 157.257 93.4461 158.462 95.0692 158.983L98.15 155.177C99.2331 153.566 101.047 152.6 102.988 152.6H105.2C107.253 150.503 110.107 149.215 113.235 149.215H113.295C114.801 149.215 116.245 149.813 117.31 150.878L117.327 150.894C118.392 151.959 119.836 152.558 121.342 152.558H137.753C139.259 152.558 140.703 151.959 141.768 150.894L141.785 150.878C142.85 149.813 144.294 149.215 145.8 149.215H145.86C148.988 149.215 151.842 150.503 153.895 152.6H155.306C157.247 152.6 159.061 153.566 160.144 155.177L162.899 159.274C164.63 158.997 167.564 158.004 167.564 154.448C167.564 153.642 168.217 152.99 169.022 152.99C169.826 152.99 170.479 153.642 170.479 154.448C170.479 159.141 167.207 161.221 164.3 161.958Z" fill="#5BB543"/>
<path d="M156.66 179.219H156.645C152.355 179.219 148.446 176.758 146.591 172.89L144.394 168.306C143.918 167.313 142.922 166.673 141.821 166.652L140.307 166.622C138.389 166.586 136.853 165.02 136.853 163.101C136.853 161.418 138.036 160.018 139.612 159.669H153.864L154.162 159.671L154.161 159.669H154.915C155.17 159.669 155.397 159.586 155.606 159.471C155.757 159.387 155.892 159.285 156.004 159.155C156.225 158.9 156.372 158.577 156.372 158.212C156.372 157.406 155.72 156.755 154.916 156.754C154.916 156.754 154.915 156.754 154.915 156.754H154.371H153.301C151.921 153.999 149.086 152.129 145.86 152.129H145.8C145.062 152.129 144.368 152.416 143.846 152.938C142.206 154.578 140.048 155.472 137.753 155.472H121.342C119.047 155.472 116.889 154.578 115.265 152.955C114.727 152.416 114.033 152.129 113.295 152.129C110.023 152.129 107.177 153.999 105.795 156.754H104.179H103.923H102.622H101.941C101.136 156.754 100.483 157.406 100.483 158.212C100.483 159.017 101.136 159.669 101.941 159.669H101.941L101.93 159.686L101.993 159.685L101.995 159.669H103.464H104.43H104.934H118.682C120.258 160.018 121.441 161.418 121.441 163.101C121.441 165.02 119.905 166.586 117.987 166.622L116.473 166.652C115.372 166.673 114.377 167.313 113.901 168.306L111.703 172.89C109.964 176.517 106.414 178.878 102.442 179.163L102.373 179.705C102.145 181.493 103.064 183.256 104.66 184.093C105.324 184.441 106.019 184.613 106.716 184.613C107.919 184.613 109.078 184.108 109.895 183.226L116.339 176.284C117.438 175.099 118.996 174.419 120.612 174.419H138.483C140.099 174.419 141.657 175.099 142.756 176.283L149.2 183.226C150.017 184.108 151.176 184.613 152.38 184.613C153.076 184.613 153.771 184.441 154.389 184.117C156.031 183.256 156.951 181.493 156.722 179.705L156.66 179.219Z" fill="#5BB543"/>
</svg>
