<svg width="100" height="200" viewBox="0 0 1280 825" fill="none" xmlns="http://www.w3.org/2000/svg">
<path d="M287 2C250 9.9 210.8 41.4 171.3 95C93.7 200.4 26.2 380.9 6.00001 536.5C1.60001 570.5 0.600006 586.5 0.600006 622.5C0.600006 659.1 1.60001 673.2 6.00001 698C19.5 772.9 54.8 815.4 110.3 823.6C136.7 827.5 162.8 822.4 189 808.3C213.9 794.9 234.7 778.3 264 748.4C289.7 722.2 306.6 702 350 645.5C363.9 627.3 379.5 607.4 384.7 601.3L394.1 590H640H885.9L895.3 601.3C900.5 607.4 917.3 628.9 932.8 649C978.4 708.4 995.6 728.5 1024.6 757C1049.2 781 1066.2 794.4 1087.5 806.4C1115.3 822 1142.2 827.7 1169.7 823.6C1182.6 821.7 1193.2 818.4 1204.1 812.9C1272 778.9 1295.6 668.1 1269.5 506.5C1248.5 376.5 1195.5 231.2 1132.4 130.1C1112 97.5 1092.9 73 1070.5 50.4C1044 23.8 1022.6 9.9 997.4 2.8C989.5 0.5 989 0.5 904 0.2C821 -0.0999997 818.4 3.38885e-07 812 1.9C803.5 4.5 791.1 12.4 771 28C752.9 42 743 48.4 735.3 51.2C730.4 52.9 724.9 53 640 53C555.1 53 549.6 52.9 544.7 51.2C537 48.4 527.1 42 509 28C489 12.5 476.6 4.6 468.2 2C462 0.1 458.9 3.38885e-07 378.6 0.1C302.2 0.1 294.8 0.3 287 2ZM958.3 126.4C968.8 128.9 978 137 981.6 147.2C983.6 152.7 983.6 163.3 981.6 168.8C973.3 192 943.5 198.3 927 180.4C920.5 173.4 918.5 168.1 918.5 158C918.5 151.5 919 148.4 920.6 144.9C924.8 135.9 933.1 129 942.9 126.4C948.9 124.8 951.3 124.8 958.3 126.4ZM336 175.5V211H371.5H407L406.8 234.6L406.5 258.1L371.3 258H336L335.8 293.7L335.5 329.5L311.8 329.8L288 330V294V258H252.5H217V234.5V211H252.5H288V175.5V140H312H336V175.5ZM878.3 206.4C889.1 208.9 899 218.2 902 228.6C903.8 234.8 902.9 246.6 900.2 252.2C897.1 258.5 890.6 264.8 884 267.9C876 271.6 864.8 271.5 856.9 267.7C850.3 264.5 843.7 257.8 840.7 251.2C837.6 244.6 837.6 231.4 840.6 224.9C844.9 215.7 853.8 208.4 863.7 206.1C869.2 204.8 871.8 204.9 878.3 206.4ZM1046.7 209C1058 214.6 1064.5 225.1 1064.5 238C1064.5 244.5 1064 246.5 1061.2 252.2C1055.4 264.1 1045.1 270.5 1032 270.5C1018.8 270.4 1008.6 264 1002.8 252.2C1000 246.5 999.5 244.6 999.5 238C999.6 232 1000.1 229.3 1002.2 224.9C1010.2 207.5 1029.5 200.6 1046.7 209ZM966.2 289.8C972.6 292.9 978.8 299.4 981.9 306C985.3 313.3 985.5 325.1 982.3 332.2C979.3 338.8 972.8 345.5 966.1 348.7C961.3 351.1 959.3 351.5 952 351.5C944.7 351.5 942.7 351.1 937.8 348.7C921.1 340.5 914.4 319.4 923.6 303.4C926.7 297.9 935 290.5 940.3 288.6C946.7 286.2 960.2 286.9 966.2 289.8ZM515.5 418.5C539.6 423.6 560.1 444 565.6 468.6C569 484 566 501.9 557.8 515.8C552.6 524.7 541.8 534.9 532.5 539.7C521.8 545.2 513.6 547.3 502 547.3C476.4 547.4 454 533.4 443 510.5C438 500 436.6 493.6 436.7 482C436.8 456.3 450.5 434.7 473.7 423.4C486.4 417.2 501.2 415.5 515.5 418.5ZM792.3 418.5C806 421.4 820.7 430.6 829.4 441.6C839 453.8 843.3 466.8 843.3 483C843.2 501.5 836.7 516.3 822.9 529.5C810.2 541.6 795.6 547.4 778 547.3C760.3 547.2 744.7 540.8 732.5 528.5C720.2 516.1 714.2 502.8 713.3 486C712.6 473.7 714.6 464 720.2 452.7C728.4 436.3 746.2 422.4 764 418.6C772.5 416.7 783.9 416.7 792.3 418.5Z" fill="#9AD06F"/>
</svg>
