<svg width="100" height="200" viewBox="0 0 100 100" fill="none" xmlns="http://www.w3.org/2000/svg">
<path d="M80.944 16C81.908 6.669 82 0 82 0H18.001C18.001 0 18.092 6.669 19.057 16C12.352 16 0 16 0 16V19C0 55.992 26.842 65.346 35.799 67.435C38.945 70.761 42.645 73.038 47 73.756V81C47 88 32 94 26 94C24.344 94 23 95.344 23 97C23 98.656 24.344 100 26 100H50H74C75.656 100 77 98.656 77 97C77 95.344 75.656 94 74 94C68 94 53 88 53 81V73.756C57.355 73.037 61.057 70.762 64.203 67.435C73.162 65.344 100 55.99 100 19V16C100 16 86.229 16 80.944 16ZM6.066 22H19.763C21.361 34.098 24.4 48.756 30.165 59.428C20.676 55.47 7.123 45.693 6.066 22ZM55.729 26.102L59.271 37L50 30.265L40.729 37L44.27 26.102L35 19.367H46.459L50 8.469L53.541 19.367H65L55.729 26.102ZM69.836 59.428C75.602 48.756 78.641 34.097 80.236 22H93.933C92.877 45.693 79.324 55.471 69.836 59.428Z" fill="#9AD06F"/>
</svg>
