<svg width="259" height="257" viewBox="0 0 259 257" fill="none" xmlns="http://www.w3.org/2000/svg">
<path d="M197.275 117.579C187.746 94.5267 168.382 80.8488 153.936 86.8425C153.936 86.8425 153.936 86.8425 153.782 86.8425C146.098 90.0699 137.953 91.9141 129.654 91.9141H129.346C121.047 91.9141 112.748 90.0699 105.218 86.8425C105.218 86.8425 105.218 86.8425 105.064 86.8425C90.618 80.8488 71.2538 94.6804 61.7254 117.579C52.197 140.478 56.0391 164.146 70.4854 170.139C78.938 173.674 88.9274 170.447 97.8411 162.609C106.447 155.078 117.359 150.621 128.732 150.621H130.268C141.641 150.621 152.553 154.925 161.159 162.609C170.073 170.447 180.062 173.674 188.515 170.139C202.961 164.146 206.803 140.632 197.275 117.579ZM108.292 131.411H101.991V137.712C101.991 141.861 98.6095 145.242 94.4601 145.242C90.3106 145.242 86.9296 141.861 86.9296 137.712V131.411H80.6285C76.479 131.411 73.098 128.03 73.098 123.88C73.098 119.731 76.479 116.35 80.6285 116.35H86.9296V110.049C86.9296 105.899 90.3106 102.518 94.4601 102.518C98.6095 102.518 101.991 105.899 101.991 110.049V116.35H108.292C112.441 116.35 115.822 119.731 115.822 123.88C115.822 128.03 112.441 131.411 108.292 131.411ZM164.54 102.518C168.689 102.518 172.07 105.899 172.07 110.049C172.07 114.198 168.689 117.579 164.54 117.579C160.39 117.579 157.009 114.198 157.009 110.049C157.009 105.899 160.39 102.518 164.54 102.518ZM150.708 131.257C146.559 131.257 143.178 127.876 143.178 123.727C143.178 119.577 146.559 116.196 150.708 116.196C154.858 116.196 158.239 119.577 158.239 123.727C158.085 128.03 154.858 131.257 150.708 131.257ZM164.54 145.089C160.39 145.089 157.009 141.708 157.009 137.558C157.009 133.409 160.39 130.028 164.54 130.028C168.689 130.028 172.07 133.409 172.07 137.558C171.917 141.861 168.536 145.089 164.54 145.089ZM178.218 131.257C174.068 131.257 170.687 127.876 170.687 123.727C170.687 119.577 174.068 116.196 178.218 116.196C182.367 116.196 185.748 119.577 185.748 123.727C185.748 128.03 182.367 131.257 178.218 131.257Z" fill="#5BB543"/>
</svg>
