<?xml version="1.0" encoding="utf-8"?>
<!-- Generator: Adobe Illustrator 16.0.0, SVG Export Plug-In . SVG Version: 6.00 Build 0)  -->
<!DOCTYPE svg PUBLIC "-//W3C//DTD SVG 1.1//EN" "http://www.w3.org/Graphics/SVG/1.1/DTD/svg11.dtd">
<svg version="1.1" id="Layer_1" xmlns="http://www.w3.org/2000/svg" xmlns:xlink="http://www.w3.org/1999/xlink" x="0px" y="0px"
	 width="864px" height="864px" viewBox="0 0 864 864" enable-background="new 0 0 864 864" xml:space="preserve">
<g>
	<path fill-rule="evenodd" clip-rule="evenodd" d="M562.567,361.335c0.341,7.301,0.477,14.619,1.061,21.901
		c1.829,22.827-7.392,40.495-25.029,54.286c-4.771,3.73-9.727,7.224-14.512,10.937c-12.665,9.824-20.181,21.643-13.43,40.271
		c-14.37-2.804-27.372-5.222-40.317-7.906c-9.547-1.979-18.938-4.86-28.554-6.312c-8.121-1.228-16.464-0.979-25.963-1.445
		c-4.232-16.287-18.439-25.201-32.119-35.187c-22.484-16.413-30.214-39.455-26.398-66.679c0.419-2.996,0.966-5.977,1.269-8.983
		c0.13-1.29-0.213-2.625-2.207-4.894c-2.044,3.767-4.659,7.336-6.04,11.333c-9.8,28.348,5.052,61.861,34.465,79.87
		c6.42,3.931,12.765,9.086,17.069,15.15c10.762,15.161,3.227,31.344-15.299,34.285c-14.005,2.223-26.563-1.739-38.248-9.444
		c-68.876-45.414-79.82-126.366-25.059-188.707c10.624-12.094,21.858-24.069,34.614-33.716c7.706-5.828,18.898-9.931,28.5-9.883
		c50.145,0.249,100.297,1.681,150.404,3.748c8.087,0.333,17.315,4.249,23.687,9.394c26.315,21.243,46.792,47.243,59.075,79.17
		c19.473,50.617-2.821,112.253-53.717,141.472c-7.945,4.561-18.64,6.102-28.031,6.004c-19.588-0.201-28.283-18.363-16.365-34.108
		c5.301-7.004,13.268-12.242,20.661-17.365c23.13-16.03,36.119-47.543,28.635-71.253c-1.368-4.337-3.621-8.395-5.467-12.583
		C564.356,360.904,563.462,361.12,562.567,361.335z"/>
	<path fill-rule="evenodd" clip-rule="evenodd" d="M356.595,544.808c18.875,4.377,35.777,8.555,52.797,12.179
		c20.647,4.396,38.567-0.137,52.843-16.725c2.024-2.353,6.396-3.96,9.565-3.785c6.654,0.366,13.255,2.025,19.832,3.368
		c27.899,5.693,43.094-8.132,39.42-35.956c10.17-0.947,20.348-1.896,31.754-2.959c0.143,2.645,0.455,5.824,0.469,9.004
		c0.383,88.22,0.852,176.44,0.932,264.66c0.01,9.988-1.254,20.22-3.734,29.873c-1.371,5.326-5.468,11.762-10.135,14.093
		c-14.334,7.155-30.06,8.709-44.606,1.005c-13.864-7.343-19.987-20.273-19.974-36.035c0.06-64.988,0.07-129.976,0.098-194.963
		c0.002-3.625,0-7.248,0-11.33c-16.095,0-31.11,0-47.132,0c-0.339,5.912-0.943,11.519-0.94,17.126
		c0.032,61.282,0.26,122.564,0.148,183.848c-0.017,9.017-0.804,18.169-2.516,27.012c-2.294,11.842-10.417,18.991-22.269,20.156
		c-9.891,0.974-20.28,1.706-29.88-0.249c-17.244-3.51-26.433-16.636-26.454-34.377c-0.092-76.773-0.149-153.546-0.217-230.319
		C356.592,555.778,356.595,551.125,356.595,544.808z"/>
	<path fill-rule="evenodd" clip-rule="evenodd" d="M516.176,233.172c-12.041,3.288-23.902,8.242-36.155,9.563
		c-42.43,4.577-78.791-7.91-104.403-43.444c-35.133-48.747-15.099-111.533,41.597-132.777
		c49.257-18.456,104.463-0.313,132.514,44.277c14.215,22.594,16.559,47.302,8.409,72.62c-1.356,4.214-5.622,9.288-9.601,10.505
		c-9.466,2.893-19.523,4.069-29.424,5.22c-4.938,0.574-10.058-0.694-15.094-0.669c-11.793,0.058-18.439,5.363-18.929,15.116
		c-0.586,11.705,8.774,11.886,16.47,13.534c4.485,0.961,9.153,1.067,13.739,1.557C515.591,230.174,515.883,231.673,516.176,233.172z
		"/>
	<path fill-rule="evenodd" clip-rule="evenodd" d="M451.885,27.878c63.082,4.177,111.955,29.584,139.371,88.988
		c1.295,2.806,3.725,5.887,6.412,7.099c7.844,3.539,11.039,9.823,11.326,17.623c0.422,11.426,1.213,23.039-0.393,34.251
		c-0.756,5.273-6.097,10.512-10.521,14.468c-4.575,4.094-11.05,6.013-15.84,9.927c-22.897,18.717-49.543,23.082-77.866,20.662
		c-4.967-0.425-12.216-2.221-10.032-9.414c0.801-2.642,8.096-5.072,12.144-4.677c21.511,2.096,41.578-1.074,59.745-13.358
		c5.855-3.959,8.506-7.809,7.062-16.426c-2.739-16.35-4.569-33.246,2.798-49.584c1.498-3.322-0.602-9.105-2.546-13.004
		c-13.619-27.315-35.049-46.849-62.837-58.733c-43.21-18.479-85.699-17.304-126.553,7.541
		c-18.086,10.999-31.364,26.285-40.163,45.443c-0.996,2.167-1.749,5.579-0.744,7.357c9.346,16.543,4.353,34.274,4.296,51.462
		c-0.027,8.069-8.983,13.977-18.199,14.263c-10.192,0.317-20.026-5.905-20.761-15.378c-1.113-14.355-0.95-28.888-0.052-43.266
		c0.234-3.732,4.511-8.863,8.162-10.376c6.988-2.894,9.832-8.133,13.046-14.151c20.071-37.59,52.305-58.667,93.312-67.151
		C432.545,29.479,442.35,29.016,451.885,27.878z"/>
	<path fill-rule="evenodd" clip-rule="evenodd" d="M356.753,503.36c14.085,0,26.326-0.186,38.553,0.158
		c2.445,0.068,5.792,1.503,7.094,3.416c10.285,15.114,24.977,21.616,42.574,23.497c3.557,0.38,6.858,3.133,10.277,4.793
		c-2.158,3.47-3.51,8.174-6.611,10.198c-14.257,9.306-30.185,8.117-45.787,4.809c-13.427-2.847-26.617-6.912-39.744-10.977
		c-2.517-0.779-5.92-3.952-6.07-6.21C356.377,523.062,356.753,513.008,356.753,503.36z"/>
	<path fill-rule="evenodd" clip-rule="evenodd" d="M431.613,516.789c-10.905-0.041-19.163-7.579-19.326-17.64
		c-0.168-10.37,8.76-18.866,19.634-18.686c10.409,0.174,19.272,8.349,19.502,17.987
		C451.667,508.669,442.849,516.832,431.613,516.789z"/>
	<polygon points="518,510.333 507.534,508.148 509.369,499.358 498.068,497 496.234,505.79 485.77,503.605 482.61,518.742 
		493.074,520.927 491.239,529.718 502.539,532.077 504.375,523.285 514.84,525.47 	"/>
</g>
</svg>
